<svg xmlns="http://www.w3.org/2000/svg" version="1.1" xmlns:xlink="http://www.w3.org/1999/xlink" xmlns:svgjs="http://svgjs.dev/svgjs" width="2000" height="1247" viewBox="0 0 2000 1247"><g transform="matrix(1,0,0,1,-1.2121212121212466,0.504858299595071)"><svg viewBox="0 0 396 247" data-background-color="#ffffff" preserveAspectRatio="xMidYMid meet" height="1247" width="2000" xmlns="http://www.w3.org/2000/svg" xmlns:xlink="http://www.w3.org/1999/xlink"><g id="tight-bounds" transform="matrix(1,0,0,1,0.2400000000000091,-0.09999999999999432)"><svg viewBox="0 0 395.52 247.2" height="247.2" width="395.52"><g><svg></svg></g><g><svg viewBox="0 0 395.52 247.2" height="247.2" width="395.52"><mask id="aa3109db-efa2-4811-b875-2f0702f6b2f0"><rect width="640" height="400" fill="white"></rect><g transform="matrix(1,0,0,1,49.79168006990088,37.08)"><svg viewBox="0 0 295.9366398601982 173.04" height="173.04" width="295.9366398601982"><g><svg viewBox="0 0 295.9366398601982 173.04" height="173.04" width="295.9366398601982"><g><svg viewBox="0 0 316.416 185.01468647432563" height="173.04" width="295.9366398601982"><g><svg viewBox="0 0 316.416 185.01468647432563" height="185.01468647432563" width="316.416"><g id="SvgjsG1003"><svg viewBox="0 0 316.416 185.01468647432563" height="185.01468647432563" width="316.416" id="SvgjsSvg1002"><g><svg viewBox="0 0 316.416 121.37068983492614" height="121.37068983492614" width="316.416"><g transform="matrix(1,0,0,1,0,0)"><svg width="316.416" viewBox="-1 -40.15 116.1 45.15" height="121.37068983492614" data-palette-color="#ffb000"><path d="M6.9-35L6.9-35 20.3-35Q22.4-35 23.08-33.95 23.75-32.9 23.98-29.63 24.2-26.35 24.2-16.93 24.2-7.5 23.8-3.1L23.8-3.1Q23.65-1.95 22.78-1.05 21.9-0.15 20.45-0.05L20.45-0.05Q17.6 0.15 13.85 0.15 10.1 0.15 6.75-0.05L6.75-0.05Q5.3-0.15 4.42-1.05 3.55-1.95 3.4-3.1L3.4-3.1Q3-7.5 3-16.93 3-26.35 3.23-29.63 3.45-32.9 4.13-33.95 4.8-35 6.9-35ZM53.2-0.1L53.2-0.1Q49.85 0.2 43.6 0.2 37.35 0.2 35.07 0.03 32.8-0.15 31.65-0.8 30.5-1.45 30.4-2.85L30.4-2.85Q30.1-8.25 30.1-15.18 30.1-22.1 30.3-29.85L30.3-29.85Q30.4-34.65 34.75-34.95L34.75-34.95Q37.8-35.15 44.1-35.15 50.4-35.15 53.97-34.98 57.55-34.8 60.87-33.33 64.2-31.85 66.2-29.5L66.2-29.5Q70.35-24.65 70.35-18.25L70.35-18.25Q70.35-11.5 66-6.2L66-6.2Q63.9-3.65 60.57-2 57.25-0.35 53.2-0.1ZM50.95-24.2L50.95-24.2 50.95-12.1Q50.95-11.7 51.25-11.35 51.55-11 52.05-11L52.05-11Q55.25-11 56.97-13.2 58.7-15.4 58.7-18.4 58.7-21.4 57.12-23.63 55.55-25.85 52.9-25.85L52.9-25.85Q52.25-25.85 51.9-25.8L51.9-25.8Q50.95-25.55 50.95-24.2ZM90.65 1Q86.35 1 82.62 0.05 78.9-0.9 77.37-1.85 75.85-2.8 75.35-3.2L75.35-3.2Q74.05-4.25 74.05-6.1L74.05-6.1Q74.05-7.55 74.4-8.85L74.4-8.85Q75.05-11.3 76.75-11.3L76.75-11.3Q77.3-11.25 80.27-10.15 83.25-9.05 84.95-9.05L84.95-9.05Q87.5-9.05 87.5-11.05L87.5-11.05Q87.5-12.25 86.25-13.28 85-14.3 83.22-15.25 81.45-16.2 79.65-17.43 77.85-18.65 76.6-20.83 75.35-23 75.35-25.9L75.35-25.9Q75.35-30.7 80.05-33.43 84.75-36.15 92.2-36.15 99.65-36.15 104.02-34.63 108.4-33.1 108.4-30.4L108.4-30.4Q108.4-28.45 107.5-26.98 106.6-25.5 105.6-25.5L105.6-25.5Q105.25-25.5 103.27-26.28 101.3-27.05 99.7-27.05L99.7-27.05Q96.55-27.05 96.55-24.6L96.55-24.6Q96.55-23.4 98.05-22.4 99.55-21.4 101.67-20.48 103.8-19.55 105.95-18.4 108.1-17.25 109.6-15.25 111.1-13.25 111.1-10.4 111.1-7.55 109.27-5.2 107.45-2.85 104.45-1.55L104.45-1.55Q98.5 1 90.65 1L90.65 1Z" opacity="1" transform="matrix(1,0,0,1,0,0)" fill="black" class="wordmark-text-0" id="SvgjsPath1001" stroke-width="7" stroke="black" stroke-linejoin="round"></path></svg></g></svg></g><g transform="matrix(1,0,0,1,3.5,145.48049876050737)"><svg viewBox="0 0 309.416 39.53418771381824" height="39.53418771381824" width="309.416"><g transform="matrix(1,0,0,1,0,0)"><svg width="309.416" viewBox="-1.75 -39.45 337.12 43.95" height="39.53418771381824" data-palette-color="#ffb000"><path d="M3.55-35L21.2-35Q22.05-35 22.05-30.58 22.05-26.15 21.2-26.15L21.2-26.15 12.05-26.15 12.05-20.45 18.15-20.45Q19-20.45 19-16.57 19-12.7 18.2-12.7L18.2-12.7 12.05-12.7 12.05-0.65Q12.05 0.05 10.18 0.28 8.3 0.5 7.05 0.5L7.05 0.5 4.7 0.4Q2.25 0.1 2.25-0.6L2.25-0.6 2.25-33.7Q2.25-34.5 2.58-34.75 2.9-35 3.55-35L3.55-35ZM27.25-18.15L27.25-18.15Q25.85-20.65 25.85-22.23 25.85-23.8 26.7-24.25L26.7-24.25Q29.55-25.5 34.52-25.5 39.5-25.5 41.55-23.18 43.6-20.85 43.6-16.3L43.6-16.3 43.6-8.4 45.3-8.4Q46.15-8.4 46.62-7.4 47.1-6.4 47.1-4.65 47.1-2.9 46.22-1.2 45.35 0.5 43.85 0.5L43.85 0.5Q41.15 0.5 39.5-0.95L39.5-0.95Q38.75-1.55 38.35-2.4L38.35-2.4Q36.05 0.5 31.2 0.5L31.2 0.5Q27.55 0.5 25.05-2.1 22.55-4.7 22.55-8.25L22.55-8.25Q22.55-16.4 32.3-16.4L32.3-16.4 35.05-16.4 35.05-16.9Q35.05-18.2 34.62-18.57 34.2-18.95 32.65-18.95L32.65-18.95Q30.75-18.95 27.25-18.15ZM31.25-8.95L31.25-8.95Q31.25-7.85 31.85-7.28 32.45-6.7 33.37-6.7 34.3-6.7 35.05-7.45L35.05-7.45 35.05-11.3 33.65-11.3Q31.25-11.3 31.25-8.95ZM51-9L51-9Q55.05-6.55 57.4-6.55L57.4-6.55Q58.9-6.55 58.9-7.6L58.9-7.6Q58.9-8.35 56.3-9.55L56.3-9.55Q50.05-12.1 50.05-17.9L50.05-17.9Q50.05-21.6 52.75-23.55 55.45-25.5 59.22-25.5 63-25.5 65.62-24.7 68.25-23.9 68.25-22.6L68.25-22.6Q68.25-21.5 67.17-19.7 66.1-17.9 65.7-17.75L65.7-17.75Q63.55-18.95 61.05-18.95L61.05-18.95Q59.7-18.95 59.7-18L59.7-18Q59.7-17.4 60.22-16.98 60.75-16.55 62.15-15.93 63.55-15.3 64.47-14.8 65.4-14.3 66.55-13.4L66.55-13.4Q68.95-11.5 68.95-8.45L68.95-8.45Q68.95-4.45 66.3-1.98 63.65 0.5 58.3 0.5L58.3 0.5Q54.75 0.5 51.85-0.7 48.95-1.9 48.95-4L48.95-4Q48.95-5.4 49.62-6.95 50.3-8.5 51-9ZM83.94-18L83.94-0.3Q83.94 0.3 79.74 0.3L79.74 0.3Q74.74 0.1 74.74-0.35L74.74-0.35 74.74-18.05 72.19-18.05Q71.19-18.05 71.19-21.5L71.19-21.5Q71.19-22.4 71.37-23.7 71.54-25 72.09-25L72.09-25 74.74-25 74.74-29.4Q74.74-30.4 78.97-30.4 83.19-30.4 83.19-29.6L83.19-29.6 83.19-26.4 83.24-25 87.49-25Q88.34-25 88.34-21.5 88.34-18 87.49-18L87.49-18 83.94-18ZM103.39-18.15L103.39-18.15Q101.99-20.65 101.99-22.23 101.99-23.8 102.84-24.25L102.84-24.25Q105.69-25.5 110.66-25.5 115.64-25.5 117.69-23.18 119.74-20.85 119.74-16.3L119.74-16.3 119.74-8.4 121.44-8.4Q122.29-8.4 122.76-7.4 123.24-6.4 123.24-4.65 123.24-2.9 122.36-1.2 121.49 0.5 119.99 0.5L119.99 0.5Q117.29 0.5 115.64-0.95L115.64-0.95Q114.89-1.55 114.49-2.4L114.49-2.4Q112.19 0.5 107.34 0.5L107.34 0.5Q103.69 0.5 101.19-2.1 98.69-4.7 98.69-8.25L98.69-8.25Q98.69-16.4 108.44-16.4L108.44-16.4 111.19-16.4 111.19-16.9Q111.19-18.2 110.76-18.57 110.34-18.95 108.79-18.95L108.79-18.95Q106.89-18.95 103.39-18.15ZM107.39-8.95L107.39-8.95Q107.39-7.85 107.99-7.28 108.59-6.7 109.51-6.7 110.44-6.7 111.19-7.45L111.19-7.45 111.19-11.3 109.79-11.3Q107.39-11.3 107.39-8.95ZM136.54-16.35L136.54-0.3Q136.54 0.05 132.94 0.05L132.94 0.05Q127.94-0.1 127.94-0.5L127.94-0.5 127.94-16.7 126.64-16.7Q125.34-16.7 124.94-18.9L124.94-18.9Q124.84-19.55 124.84-20.2L124.84-20.2Q124.84-21.75 125.44-23.3L125.44-23.3Q126.34-25.5 128.24-25.5 130.14-25.5 131.64-24.6 133.14-23.7 133.64-22.8L133.64-22.8Q136.79-25.5 141.14-25.5 145.49-25.5 147.44-23.15 149.39-20.8 149.39-15.45L149.39-15.45 149.39-0.45Q149.39 0.15 145.11 0.15 140.84 0.15 140.84-0.45L140.84-0.45 140.84-14.9Q140.84-17.4 139.09-17.4L139.09-17.4Q138.59-17.4 137.69-16.98 136.79-16.55 136.54-16.35L136.54-16.35ZM166.28-25.2L166.28-34.7Q166.28-35.45 170.23-35.45L170.23-35.45Q171.58-35.45 173.36-35.27 175.13-35.1 175.13-34.8L175.13-34.8 175.13-8.45 176.88-8.45Q178.13-8.45 178.53-6.2L178.53-6.2Q178.63-5.55 178.63-4.42 178.63-3.3 177.93-1.7L177.93-1.7Q176.93 0.5 174.73 0.5L174.73 0.5Q173.08 0.5 171.81-0.15 170.53-0.8 170.08-1.5L170.08-1.5 169.63-2.15Q166.88 0.5 162.73 0.5 158.58 0.5 155.63-2.95 152.68-6.4 152.68-12.58 152.68-18.75 155.78-22.13 158.88-25.5 163.53-25.5L163.53-25.5Q164.88-25.5 166.28-25.2L166.28-25.2ZM164.63-17.5L164.63-17.5Q161.83-17.5 161.83-12.45L161.83-12.45Q161.83-9.9 162.63-8.78 163.43-7.65 164.41-7.65 165.38-7.65 166.28-8.5L166.28-8.5 166.28-17Q165.43-17.5 164.63-17.5ZM192.83-12.2L192.83-12.2Q193.78-11.45 196.1-10.15 198.43-8.85 200.55-8.85 202.68-8.85 202.68-10.5L202.68-10.5Q202.68-11.25 202.08-11.83 201.48-12.4 199.88-13.15 198.28-13.9 197.48-14.33 196.68-14.75 195.35-15.73 194.03-16.7 193.33-17.75L193.33-17.75Q191.33-20.6 191.33-25 191.33-29.4 194.6-32.43 197.88-35.45 203.18-35.45L203.18-35.45Q206.78-35.45 209.83-34.68 212.88-33.9 212.98-32.65L212.98-32.65Q212.98-32.5 212.98-32.35L212.98-32.35Q212.98-30.6 211.88-27.93 210.78-25.25 210.33-24.95L210.33-24.95Q207.13-26.6 204.6-26.6 202.08-26.6 202.08-24.8L202.08-24.8Q202.08-23.7 203.93-22.85L203.93-22.85Q204.33-22.65 205.08-22.3 205.83-21.95 206.8-21.48 207.78-21 208.9-20.28 210.03-19.55 211.33-18.35L211.33-18.35Q213.98-15.85 213.98-11.75L213.98-11.75Q213.98-6.4 211.03-3 208.08 0.4 201.93 0.5L201.93 0.5Q198.93 0.5 196.5 0 194.08-0.5 192.28-1.95 190.48-3.4 190.48-5.45 190.48-7.5 191.23-9.53 191.98-11.55 192.83-12.2ZM236.73-1.35L236.73-1.35Q233.58 0.5 228.63 0.5 223.68 0.5 220.28-2.88 216.88-6.25 216.88-12.23 216.88-18.2 220.15-21.85 223.43-25.5 228.43-25.5 233.43-25.5 236.15-22.95 238.88-20.4 238.88-16.75L238.88-16.75Q238.88-8.65 229.58-8.65L229.58-8.65 226.13-8.65Q226.13-7.15 226.95-6.58 227.78-6 229.38-6L229.38-6Q232.88-6 236.03-7.6L236.03-7.6Q236.08-7.65 236.48-6.9L236.48-6.9Q237.68-4.75 237.68-3.28 237.68-1.8 236.73-1.35ZM230.48-15.8L230.48-15.8Q230.48-17.9 228.43-17.9L228.43-17.9Q227.48-17.9 226.8-17.32 226.13-16.75 226.13-15.65L226.13-15.65 226.13-14.1 228.83-14.1Q230.48-14.1 230.48-15.8ZM250.32-12.4L250.32-12.4Q250.32-7.5 254.02-7.5L254.02-7.5Q256.42-7.5 258.02-8.45L258.02-8.45Q258.77-8.45 259.25-5.88 259.72-3.3 259.72-2.38 259.72-1.45 259.47-1.15L259.47-1.15Q256.82 0.5 252.22 0.5 247.62 0.5 244.4-2.93 241.17-6.35 241.17-12.28 241.17-18.2 244.35-21.85 247.52-25.5 252.8-25.5 258.07-25.5 260.12-22.95L260.12-22.95Q260.57-22.4 260.57-21.33 260.57-20.25 260.17-18.7L260.17-18.7Q259.27-15.5 257.82-15L257.82-15Q257.62-14.95 257.25-14.95 256.87-14.95 256.32-15.55L256.32-15.55Q254.37-17.5 253.2-17.5 252.02-17.5 251.17-16.3 250.32-15.1 250.32-12.4ZM263.07-9.95L263.07-24.7Q263.07-25.25 267.37-25.25 271.67-25.25 271.67-24.7L271.67-24.7 271.67-10.1Q271.67-7.6 273.27-7.6L273.27-7.6Q274.47-7.6 275.97-8.65L275.97-8.65 275.97-24.7Q275.97-25.2 280.22-25.2 284.47-25.2 284.47-24.7L284.47-24.7 284.47-8.3 285.77-8.3Q287.47-8.3 287.47-5.05L287.47-5.05Q287.47-3.4 286.77-1.7L286.77-1.7Q285.77 0.5 284.07 0.5L284.07 0.5Q280.72 0.5 279.12-2.25L279.12-2.25 279.07-2.2Q276.02 0.5 272.52 0.5L272.52 0.5Q267.67 0.5 265.37-1.93 263.07-4.35 263.07-9.95L263.07-9.95ZM301.47-14L301.47-0.05Q301.47 0.3 296.92 0.3L296.92 0.3Q292.37 0.2 292.37-0.1L292.37-0.1 292.37-16.7 291.02-16.7Q290.22-16.7 289.74-17.68 289.27-18.65 289.27-20.1L289.27-20.1Q289.27-25.5 292.47-25.5L292.47-25.5Q294.72-25.5 296.22-24.13 297.72-22.75 297.72-21L297.72-21Q298.77-23.05 300.54-24.28 302.32-25.5 304.17-25.5L304.17-25.5Q307.07-25.5 307.67-24L307.67-24Q307.82-23.6 307.82-22.83 307.82-22.05 307.34-20.05 306.87-18.05 306.37-17.15 305.87-16.25 305.77-16.25 305.67-16.25 304.84-16.63 304.02-17 303.37-17L303.37-17Q301.47-17 301.47-14L301.47-14ZM329.22-1.35L329.22-1.35Q326.07 0.5 321.12 0.5 316.17 0.5 312.77-2.88 309.37-6.25 309.37-12.23 309.37-18.2 312.64-21.85 315.92-25.5 320.92-25.5 325.92-25.5 328.64-22.95 331.37-20.4 331.37-16.75L331.37-16.75Q331.37-8.65 322.07-8.65L322.07-8.65 318.62-8.65Q318.62-7.15 319.44-6.58 320.27-6 321.87-6L321.87-6Q325.37-6 328.52-7.6L328.52-7.6Q328.57-7.65 328.97-6.9L328.97-6.9Q330.17-4.75 330.17-3.28 330.17-1.8 329.22-1.35ZM322.97-15.8L322.97-15.8Q322.97-17.9 320.92-17.9L320.92-17.9Q319.97-17.9 319.29-17.32 318.62-16.75 318.62-15.65L318.62-15.65 318.62-14.1 321.32-14.1Q322.97-14.1 322.97-15.8Z" opacity="1" transform="matrix(1,0,0,1,0,0)" fill="black" class="slogan-text-1" id="SvgjsPath1000" stroke-width="7" stroke="black" stroke-linejoin="round"></path></svg></g></svg></g></svg></g></svg></g><g></g></svg></g></svg></g></svg></g></mask><g transform="matrix(1,0,0,1,49.79168006990088,37.08)"><svg viewBox="0 0 295.9366398601982 173.04" height="173.04" width="295.9366398601982"><g><svg viewBox="0 0 295.9366398601982 173.04" height="173.04" width="295.9366398601982"><g><svg viewBox="0 0 316.416 185.01468647432563" height="173.04" width="295.9366398601982"><g><svg viewBox="0 0 316.416 185.01468647432563" height="185.01468647432563" width="316.416"><g id="textblocktransform"><svg viewBox="0 0 316.416 185.01468647432563" height="185.01468647432563" width="316.416" id="textblock"><g><svg viewBox="0 0 316.416 121.37068983492614" height="121.37068983492614" width="316.416"><g transform="matrix(1,0,0,1,0,0)"><svg width="316.416" viewBox="-1 -40.15 116.1 45.15" height="121.37068983492614" data-palette-color="#ffb000"><path d="M6.9-35L6.9-35 20.3-35Q22.4-35 23.08-33.95 23.75-32.9 23.98-29.63 24.2-26.35 24.2-16.93 24.2-7.5 23.8-3.1L23.8-3.1Q23.65-1.95 22.78-1.05 21.9-0.15 20.45-0.05L20.45-0.05Q17.6 0.15 13.85 0.15 10.1 0.15 6.75-0.05L6.75-0.05Q5.3-0.15 4.42-1.05 3.55-1.95 3.4-3.1L3.4-3.1Q3-7.5 3-16.93 3-26.35 3.23-29.63 3.45-32.9 4.13-33.95 4.8-35 6.9-35ZM53.2-0.1L53.2-0.1Q49.85 0.2 43.6 0.2 37.35 0.2 35.07 0.03 32.8-0.15 31.65-0.8 30.5-1.45 30.4-2.85L30.4-2.85Q30.1-8.25 30.1-15.18 30.1-22.1 30.3-29.85L30.3-29.85Q30.4-34.65 34.75-34.95L34.75-34.95Q37.8-35.15 44.1-35.15 50.4-35.15 53.97-34.98 57.55-34.8 60.87-33.33 64.2-31.85 66.2-29.5L66.2-29.5Q70.35-24.65 70.35-18.25L70.35-18.25Q70.35-11.5 66-6.2L66-6.2Q63.9-3.65 60.57-2 57.25-0.35 53.2-0.1ZM50.95-24.2L50.95-24.2 50.95-12.1Q50.95-11.7 51.25-11.35 51.55-11 52.05-11L52.05-11Q55.25-11 56.97-13.2 58.7-15.4 58.7-18.4 58.7-21.4 57.12-23.63 55.55-25.85 52.9-25.85L52.9-25.85Q52.25-25.85 51.9-25.8L51.9-25.8Q50.95-25.55 50.95-24.2ZM90.65 1Q86.35 1 82.62 0.05 78.9-0.9 77.37-1.85 75.85-2.8 75.35-3.2L75.35-3.2Q74.05-4.25 74.05-6.1L74.05-6.1Q74.05-7.55 74.4-8.85L74.4-8.85Q75.05-11.3 76.75-11.3L76.75-11.3Q77.3-11.25 80.27-10.15 83.25-9.05 84.95-9.05L84.95-9.05Q87.5-9.05 87.5-11.05L87.5-11.05Q87.5-12.25 86.25-13.28 85-14.3 83.22-15.25 81.45-16.2 79.65-17.43 77.85-18.65 76.6-20.83 75.35-23 75.35-25.9L75.35-25.9Q75.35-30.7 80.05-33.43 84.75-36.15 92.2-36.15 99.65-36.15 104.02-34.63 108.4-33.1 108.4-30.4L108.4-30.4Q108.4-28.45 107.5-26.98 106.6-25.5 105.6-25.5L105.6-25.5Q105.25-25.5 103.27-26.28 101.3-27.05 99.7-27.05L99.7-27.05Q96.55-27.05 96.55-24.6L96.55-24.6Q96.55-23.4 98.05-22.4 99.55-21.4 101.67-20.48 103.8-19.55 105.95-18.4 108.1-17.25 109.6-15.25 111.1-13.25 111.1-10.4 111.1-7.55 109.27-5.2 107.45-2.85 104.45-1.55L104.45-1.55Q98.5 1 90.65 1L90.65 1Z" opacity="1" transform="matrix(1,0,0,1,0,0)" fill="#ffffff" class="wordmark-text-0" data-fill-palette-color="primary" id="text-0"></path></svg></g></svg></g><g transform="matrix(1,0,0,1,3.5,145.48049876050737)"><svg viewBox="0 0 309.416 39.53418771381824" height="39.53418771381824" width="309.416"><g transform="matrix(1,0,0,1,0,0)"><svg width="309.416" viewBox="-1.75 -39.45 337.12 43.95" height="39.53418771381824" data-palette-color="#ffb000"><path d="M3.55-35L21.2-35Q22.05-35 22.05-30.58 22.05-26.15 21.2-26.15L21.2-26.15 12.05-26.15 12.05-20.45 18.15-20.45Q19-20.45 19-16.57 19-12.7 18.2-12.7L18.2-12.7 12.05-12.7 12.05-0.65Q12.05 0.05 10.18 0.28 8.3 0.5 7.05 0.5L7.05 0.5 4.7 0.4Q2.25 0.1 2.25-0.6L2.25-0.6 2.25-33.7Q2.25-34.5 2.58-34.75 2.9-35 3.55-35L3.55-35ZM27.25-18.15L27.25-18.15Q25.85-20.65 25.85-22.23 25.85-23.8 26.7-24.25L26.7-24.25Q29.55-25.5 34.52-25.5 39.5-25.5 41.55-23.18 43.6-20.85 43.6-16.3L43.6-16.3 43.6-8.4 45.3-8.4Q46.15-8.4 46.62-7.4 47.1-6.4 47.1-4.65 47.1-2.9 46.22-1.2 45.35 0.5 43.85 0.5L43.85 0.5Q41.15 0.5 39.5-0.95L39.5-0.95Q38.75-1.55 38.35-2.4L38.35-2.4Q36.05 0.5 31.2 0.5L31.2 0.5Q27.55 0.5 25.05-2.1 22.55-4.7 22.55-8.25L22.55-8.25Q22.55-16.4 32.3-16.4L32.3-16.4 35.05-16.4 35.05-16.9Q35.05-18.2 34.62-18.57 34.2-18.95 32.65-18.95L32.65-18.95Q30.75-18.95 27.25-18.15ZM31.25-8.95L31.25-8.95Q31.25-7.85 31.85-7.28 32.45-6.7 33.37-6.7 34.3-6.7 35.05-7.45L35.05-7.45 35.05-11.3 33.65-11.3Q31.25-11.3 31.25-8.95ZM51-9L51-9Q55.05-6.55 57.4-6.55L57.4-6.55Q58.9-6.55 58.9-7.6L58.9-7.6Q58.9-8.35 56.3-9.55L56.3-9.55Q50.05-12.1 50.05-17.9L50.05-17.9Q50.05-21.6 52.75-23.55 55.45-25.5 59.22-25.5 63-25.5 65.62-24.7 68.25-23.9 68.25-22.6L68.25-22.6Q68.25-21.5 67.17-19.7 66.1-17.9 65.7-17.75L65.7-17.75Q63.55-18.95 61.05-18.95L61.05-18.95Q59.7-18.95 59.7-18L59.7-18Q59.7-17.4 60.22-16.98 60.75-16.55 62.15-15.93 63.55-15.3 64.47-14.8 65.4-14.3 66.55-13.4L66.55-13.4Q68.95-11.5 68.95-8.45L68.95-8.45Q68.95-4.45 66.3-1.98 63.65 0.5 58.3 0.5L58.3 0.5Q54.75 0.5 51.85-0.7 48.95-1.9 48.95-4L48.95-4Q48.95-5.4 49.62-6.95 50.3-8.5 51-9ZM83.94-18L83.94-0.3Q83.94 0.3 79.74 0.3L79.74 0.3Q74.74 0.1 74.74-0.35L74.74-0.35 74.74-18.05 72.19-18.05Q71.19-18.05 71.19-21.5L71.19-21.5Q71.19-22.4 71.37-23.7 71.54-25 72.09-25L72.09-25 74.74-25 74.74-29.4Q74.74-30.4 78.97-30.4 83.19-30.4 83.19-29.6L83.19-29.6 83.19-26.4 83.24-25 87.49-25Q88.34-25 88.34-21.5 88.34-18 87.49-18L87.49-18 83.94-18ZM103.39-18.15L103.39-18.15Q101.99-20.65 101.99-22.23 101.99-23.8 102.84-24.25L102.84-24.25Q105.69-25.5 110.66-25.5 115.64-25.5 117.69-23.18 119.74-20.85 119.74-16.3L119.74-16.3 119.74-8.4 121.44-8.4Q122.29-8.4 122.76-7.4 123.24-6.4 123.24-4.65 123.24-2.9 122.36-1.2 121.49 0.5 119.99 0.5L119.99 0.5Q117.29 0.5 115.64-0.95L115.64-0.95Q114.89-1.55 114.49-2.4L114.49-2.4Q112.19 0.5 107.34 0.5L107.34 0.5Q103.69 0.5 101.19-2.1 98.69-4.7 98.69-8.25L98.69-8.25Q98.69-16.4 108.44-16.4L108.44-16.4 111.19-16.4 111.19-16.9Q111.19-18.2 110.76-18.57 110.34-18.95 108.79-18.95L108.79-18.95Q106.89-18.95 103.39-18.15ZM107.39-8.95L107.39-8.95Q107.39-7.85 107.99-7.28 108.59-6.7 109.51-6.7 110.44-6.7 111.19-7.45L111.19-7.45 111.19-11.3 109.79-11.3Q107.39-11.3 107.39-8.95ZM136.54-16.35L136.54-0.3Q136.54 0.05 132.94 0.05L132.94 0.05Q127.94-0.1 127.94-0.5L127.94-0.5 127.94-16.7 126.64-16.7Q125.34-16.7 124.94-18.9L124.94-18.9Q124.84-19.55 124.84-20.2L124.84-20.2Q124.84-21.75 125.44-23.3L125.44-23.3Q126.34-25.5 128.24-25.5 130.14-25.5 131.64-24.6 133.14-23.7 133.64-22.8L133.64-22.8Q136.79-25.5 141.14-25.5 145.49-25.5 147.44-23.15 149.39-20.8 149.39-15.45L149.39-15.45 149.39-0.45Q149.39 0.15 145.11 0.15 140.84 0.15 140.84-0.45L140.84-0.45 140.84-14.9Q140.84-17.4 139.09-17.4L139.09-17.4Q138.59-17.4 137.69-16.98 136.79-16.55 136.54-16.35L136.54-16.35ZM166.28-25.2L166.28-34.7Q166.28-35.45 170.23-35.45L170.23-35.45Q171.58-35.45 173.36-35.27 175.13-35.1 175.13-34.8L175.13-34.8 175.13-8.45 176.88-8.45Q178.13-8.45 178.53-6.2L178.53-6.2Q178.63-5.55 178.63-4.42 178.63-3.3 177.93-1.7L177.93-1.7Q176.93 0.5 174.73 0.5L174.73 0.5Q173.08 0.5 171.81-0.15 170.53-0.8 170.08-1.5L170.08-1.5 169.63-2.15Q166.88 0.5 162.73 0.5 158.58 0.5 155.63-2.95 152.68-6.4 152.68-12.58 152.68-18.75 155.78-22.13 158.88-25.5 163.53-25.5L163.53-25.5Q164.88-25.5 166.28-25.2L166.28-25.2ZM164.63-17.5L164.63-17.5Q161.83-17.5 161.83-12.45L161.83-12.45Q161.83-9.9 162.63-8.78 163.43-7.65 164.41-7.65 165.38-7.65 166.28-8.5L166.28-8.5 166.28-17Q165.43-17.5 164.63-17.5ZM192.83-12.2L192.83-12.2Q193.78-11.45 196.1-10.15 198.43-8.85 200.55-8.85 202.68-8.85 202.68-10.5L202.68-10.5Q202.68-11.25 202.08-11.83 201.48-12.4 199.88-13.15 198.28-13.9 197.48-14.33 196.68-14.75 195.35-15.73 194.03-16.7 193.33-17.75L193.33-17.75Q191.33-20.6 191.33-25 191.33-29.4 194.6-32.43 197.88-35.45 203.18-35.45L203.18-35.45Q206.78-35.45 209.83-34.68 212.88-33.9 212.98-32.65L212.98-32.65Q212.98-32.5 212.98-32.35L212.98-32.35Q212.98-30.6 211.88-27.93 210.78-25.25 210.33-24.95L210.33-24.95Q207.13-26.6 204.6-26.6 202.08-26.6 202.08-24.8L202.08-24.8Q202.08-23.7 203.93-22.85L203.93-22.85Q204.33-22.65 205.08-22.3 205.83-21.95 206.8-21.48 207.78-21 208.9-20.28 210.03-19.55 211.33-18.35L211.33-18.35Q213.98-15.85 213.98-11.75L213.98-11.75Q213.98-6.4 211.03-3 208.08 0.4 201.93 0.5L201.93 0.5Q198.93 0.5 196.5 0 194.08-0.5 192.28-1.95 190.48-3.4 190.48-5.45 190.48-7.5 191.23-9.53 191.98-11.55 192.83-12.2ZM236.73-1.35L236.73-1.35Q233.58 0.5 228.63 0.5 223.68 0.5 220.28-2.88 216.88-6.25 216.88-12.23 216.88-18.2 220.15-21.85 223.43-25.5 228.43-25.5 233.43-25.5 236.15-22.95 238.88-20.4 238.88-16.75L238.88-16.75Q238.88-8.65 229.58-8.65L229.58-8.65 226.13-8.65Q226.13-7.15 226.95-6.58 227.78-6 229.38-6L229.38-6Q232.88-6 236.03-7.6L236.03-7.6Q236.08-7.65 236.48-6.9L236.48-6.9Q237.68-4.75 237.68-3.28 237.68-1.8 236.73-1.35ZM230.48-15.8L230.48-15.8Q230.48-17.9 228.43-17.9L228.43-17.9Q227.48-17.9 226.8-17.32 226.13-16.75 226.13-15.65L226.13-15.65 226.13-14.1 228.83-14.1Q230.48-14.1 230.48-15.8ZM250.32-12.4L250.32-12.4Q250.32-7.5 254.02-7.5L254.02-7.5Q256.42-7.5 258.02-8.45L258.02-8.45Q258.77-8.45 259.25-5.88 259.72-3.3 259.72-2.38 259.72-1.45 259.47-1.15L259.47-1.15Q256.82 0.5 252.22 0.5 247.62 0.5 244.4-2.93 241.17-6.35 241.17-12.28 241.17-18.2 244.35-21.85 247.52-25.5 252.8-25.5 258.07-25.5 260.12-22.95L260.12-22.95Q260.57-22.4 260.57-21.33 260.57-20.25 260.17-18.7L260.17-18.7Q259.27-15.5 257.82-15L257.82-15Q257.62-14.95 257.25-14.95 256.87-14.95 256.32-15.55L256.32-15.55Q254.37-17.5 253.2-17.5 252.02-17.5 251.17-16.3 250.32-15.1 250.32-12.4ZM263.07-9.95L263.07-24.7Q263.07-25.25 267.37-25.25 271.67-25.25 271.67-24.7L271.67-24.7 271.67-10.1Q271.67-7.6 273.27-7.6L273.27-7.6Q274.47-7.6 275.97-8.65L275.97-8.65 275.97-24.7Q275.97-25.2 280.22-25.2 284.47-25.2 284.47-24.7L284.47-24.7 284.47-8.3 285.77-8.3Q287.47-8.3 287.47-5.05L287.47-5.05Q287.47-3.4 286.77-1.7L286.77-1.7Q285.77 0.5 284.07 0.5L284.07 0.5Q280.72 0.5 279.12-2.25L279.12-2.25 279.07-2.2Q276.02 0.5 272.52 0.5L272.52 0.5Q267.67 0.5 265.37-1.93 263.07-4.35 263.07-9.95L263.07-9.95ZM301.47-14L301.47-0.05Q301.47 0.3 296.92 0.3L296.92 0.3Q292.37 0.2 292.37-0.1L292.37-0.1 292.37-16.7 291.02-16.7Q290.22-16.7 289.74-17.68 289.27-18.65 289.27-20.1L289.27-20.1Q289.27-25.5 292.47-25.5L292.47-25.5Q294.72-25.5 296.22-24.13 297.72-22.75 297.72-21L297.72-21Q298.77-23.05 300.54-24.28 302.32-25.5 304.17-25.5L304.17-25.5Q307.07-25.5 307.67-24L307.67-24Q307.82-23.6 307.82-22.83 307.82-22.05 307.34-20.05 306.87-18.05 306.37-17.15 305.87-16.25 305.77-16.25 305.67-16.25 304.84-16.63 304.02-17 303.37-17L303.37-17Q301.47-17 301.47-14L301.47-14ZM329.22-1.35L329.22-1.35Q326.07 0.5 321.12 0.5 316.17 0.5 312.77-2.88 309.37-6.25 309.37-12.23 309.37-18.2 312.64-21.85 315.92-25.5 320.92-25.5 325.92-25.5 328.64-22.95 331.37-20.4 331.37-16.75L331.37-16.75Q331.37-8.65 322.07-8.65L322.07-8.65 318.62-8.65Q318.62-7.15 319.44-6.58 320.27-6 321.87-6L321.87-6Q325.37-6 328.52-7.6L328.52-7.6Q328.57-7.65 328.97-6.9L328.97-6.9Q330.17-4.75 330.17-3.28 330.17-1.8 329.22-1.35ZM322.97-15.8L322.97-15.8Q322.97-17.9 320.92-17.9L320.92-17.9Q319.97-17.9 319.29-17.32 318.62-16.75 318.62-15.65L318.62-15.65 318.62-14.1 321.32-14.1Q322.97-14.1 322.97-15.8Z" opacity="1" transform="matrix(1,0,0,1,0,0)" fill="#ffffff" class="slogan-text-1" data-fill-palette-color="secondary" id="text-1"></path></svg></g></svg></g></svg></g></svg></g><g></g></svg></g></svg></g></svg></g><g mask="url(#aa3109db-efa2-4811-b875-2f0702f6b2f0)"><g transform="matrix(5.263073425170522, 0, 0, 5.263073425170522, 1, 3.865079577370608)"><svg xmlns="http://www.w3.org/2000/svg" xmlns:xlink="http://www.w3.org/1999/xlink" version="1.1" x="0" y="0" viewBox="12.615000000000002 27.25 74.77000000000001 45.5" enable-background="new 0 0 100 100" xml:space="preserve" height="45.5" width="74.77000000000001" class="icon-none" data-fill-palette-color="accent" id="none"><g fill="#ffb000" data-fill-palette-color="accent"><path fill="#ffffff" d="M35.551 64.875c0 4.35-3.531 7.875-7.889 7.875-4.356 0-7.889-3.525-7.889-7.875S23.306 57 27.662 57C32.02 57 35.551 60.525 35.551 64.875zM87.385 53.58v8.46c0 1.56-1.271 2.83-2.83 2.83h-1.3c0-5.65-4.59-10.23-10.24-10.23s-10.24 4.58-10.24 10.23H37.915c0-5.65-4.59-10.23-10.25-10.23-5.67 0-10.26 4.58-10.26 10.23h-1.95c-1.561 0-2.84-1.271-2.84-2.83V50.58h36.149V28.67c0-0.72 0.54-1.32 1.24-1.4 0.06-0.02 0.12-0.02 0.18-0.02h12.561c1.56 0 3.439 1.12 4.18 2.49l7.51 13.91c0.74 1.37 2.53 2.96 3.98 3.541l6.34 2.52C86.205 50.28 87.385 52.03 87.385 53.58zM70.495 46.02l-7.03-12.78c-0.38-0.68-1.32-1.24-2.101-1.24h-6.6c-0.78 0-1.42 0.64-1.42 1.42v12.42c0 0.78 0.64 1.42 1.42 1.42h15C70.545 47.26 70.875 46.7 70.495 46.02zM50.005 27.25v0.02c0.06-0.02 0.12-0.02 0.18-0.02H50.005zM73.015 57c-4.35 0-7.875 3.525-7.875 7.875s3.525 7.875 7.875 7.875 7.875-3.525 7.875-7.875S77.364 57 73.015 57zM16.935 32.57V47.19l12.79-7.3L16.935 32.57zM31.745 41.05l-12.91 7.37h25.77L31.745 41.05zM18.945 31.42l12.79 7.33 12.85-7.33H18.945zM33.755 39.9l12.84 7.36V32.58L33.755 39.9z" data-fill-palette-color="accent"></path></g></svg></g></g></svg></g><defs></defs></svg><rect width="395.52" height="247.2" fill="none" stroke="none" visibility="hidden"></rect></g></svg></g></svg>